<svg width="115" height="11" viewBox="0 0 115 11" fill="none" xmlns="http://www.w3.org/2000/svg">
<circle cx="26.55" cy="5.28242" r="3.375" stroke="#123D6E" stroke-width="1.35"/>
<circle cx="57.1496" cy="5.28242" r="3.375" stroke="#123D6E" stroke-width="1.35"/>
<circle cx="87.7502" cy="5.28242" r="3.375" stroke="#123D6E" stroke-width="1.35"/>
<path d="M30.5996 5.28125H53.0995" stroke="#D9D9D9" stroke-width="0.9"/>
<path d="M30.5996 5.28125H53.0995" stroke="#D9D9D9" stroke-width="0.9"/>
<path d="M30.5996 5.28125H53.0995" stroke="#D9D9D9" stroke-width="0.9"/>
<path d="M0 5.28125H22.4999" stroke="#D9D9D9" stroke-width="0.9"/>
<path d="M0 5.28125H22.4999" stroke="#D9D9D9" stroke-width="0.9"/>
<path d="M0 5.28125H22.4999" stroke="#D9D9D9" stroke-width="0.9"/>
<path d="M61.2002 5.28125H83.7001" stroke="#D9D9D9" stroke-width="0.9"/>
<path d="M61.2002 5.28125H83.7001" stroke="#D9D9D9" stroke-width="0.9"/>
<path d="M61.2002 5.28125H83.7001" stroke="#D9D9D9" stroke-width="0.9"/>
<path d="M91.7998 5.28125H114.3" stroke="#D9D9D9" stroke-width="0.9"/>
<path d="M91.7998 5.28125H114.3" stroke="#D9D9D9" stroke-width="0.9"/>
<path d="M91.7998 5.28125H114.3" stroke="#D9D9D9" stroke-width="0.9"/>
<path d="M108.9 0.332031L114.3 5.28203L108.9 9.78203" stroke="#D9D9D9" stroke-width="0.9"/>
<path d="M108.9 0.332031L114.3 5.28203L108.9 9.78203" stroke="#D9D9D9" stroke-width="0.9"/>
<path d="M108.9 0.332031L114.3 5.28203L108.9 9.78203" stroke="#D9D9D9" stroke-width="0.9"/>
</svg>
